<?xml version="1.0" standalone="no"?>
<!DOCTYPE svg PUBLIC "-//W3C//DTD SVG 20010904//EN"
 "http://www.w3.org/TR/2001/REC-SVG-20010904/DTD/svg10.dtd">
<svg version="1.0" xmlns="http://www.w3.org/2000/svg"
 width="1536.000000pt" height="1024.000000pt" viewBox="0 0 1536.000000 1024.000000"
 preserveAspectRatio="xMidYMid meet">

<g transform="translate(0.000000,1024.000000) scale(0.100000,-0.100000)"
fill="#000000" stroke="none">
<path d="M3480 6460 c-25 -4 11 -5 80 -2 69 3 127 6 129 8 7 7 -162 1 -209 -6z"/>
<path d="M3713 6449 c9 -5 17 -19 17 -29 0 -11 5 -20 10 -20 6 0 10 3 10 8 0
14 -31 52 -43 52 -7 0 -4 -5 6 -11z"/>
<path d="M3398 6443 c6 -2 18 -2 25 0 6 3 1 5 -13 5 -14 0 -19 -2 -12 -5z"/>
<path d="M3948 6443 c7 -3 16 -2 19 1 4 3 -2 6 -13 5 -11 0 -14 -3 -6 -6z"/>
<path d="M3348 6433 c6 -2 18 -2 25 0 6 3 1 5 -13 5 -14 0 -19 -2 -12 -5z"/>
<path d="M3988 6433 c6 -2 18 -2 25 0 6 3 1 5 -13 5 -14 0 -19 -2 -12 -5z"/>
<path d="M3270 6415 c-19 -7 -28 -13 -20 -13 8 0 31 6 50 13 19 7 28 13 20 13
-8 0 -31 -6 -50 -13z"/>
<path d="M3125 6361 c-79 -39 -66 -39 16 -1 35 16 60 29 54 30 -5 0 -37 -13
-70 -29z"/>
<path d="M3728 6352 l-17 -37 19 24 c11 13 20 29 20 37 0 21 -3 17 -22 -24z"/>
<path d="M4180 6380 c8 -5 20 -10 25 -10 6 0 3 5 -5 10 -8 5 -19 10 -25 10 -5
0 -3 -5 5 -10z"/>
<path d="M3000 6298 c-187 -107 -380 -323 -461 -516 -17 -41 -29 -76 -27 -78
3 -2 18 31 36 74 78 192 270 407 455 512 31 17 57 34 57 36 0 6 -2 5 -60 -28z"/>
<path d="M3668 6313 c6 -2 18 -2 25 0 6 3 1 5 -13 5 -14 0 -19 -2 -12 -5z"/>
<path d="M3563 6303 c15 -2 39 -2 55 0 15 2 2 4 -28 4 -30 0 -43 -2 -27 -4z"/>
<path d="M3483 6293 c9 -2 25 -2 35 0 9 3 1 5 -18 5 -19 0 -27 -2 -17 -5z"/>
<path d="M3418 6283 c6 -2 18 -2 25 0 6 3 1 5 -13 5 -14 0 -19 -2 -12 -5z"/>
<path d="M4380 6286 c0 -3 9 -10 20 -16 11 -6 20 -8 20 -6 0 3 -9 10 -20 16
-11 6 -20 8 -20 6z"/>
<path d="M3307 6258 c-84 -29 -65 -32 23 -3 41 13 66 24 55 24 -11 0 -46 -10
-78 -21z"/>
<path d="M4430 6256 c0 -2 14 -14 30 -26 17 -12 30 -19 30 -16 0 2 -13 14 -30
26 -16 12 -30 19 -30 16z"/>
<path d="M3155 6193 c-166 -85 -308 -225 -391 -385 -47 -91 -84 -189 -84 -217
1 -9 11 16 24 54 49 153 143 299 256 401 74 66 110 91 205 141 44 23 76 42 70
42 -5 0 -41 -16 -80 -36z"/>
<path d="M4510 6196 c0 -2 8 -10 18 -17 15 -13 16 -12 3 4 -13 16 -21 21 -21
13z"/>
<path d="M4641 6075 c41 -44 92 -105 114 -135 45 -64 67 -89 40 -45 -36 59
-104 141 -166 200 -60 56 -59 55 12 -20z"/>
<path d="M3658 6123 c12 -2 32 -2 45 0 12 2 2 4 -23 4 -25 0 -35 -2 -22 -4z"/>
<path d="M3574 6098 c-44 -34 -61 -59 -74 -104 -21 -72 10 -152 71 -188 29
-17 27 -14 -13 25 -37 35 -47 53 -53 90 -11 74 33 155 100 185 17 7 23 13 14
14 -9 0 -29 -10 -45 -22z"/>
<path d="M3765 6099 c22 -11 51 -32 63 -47 20 -23 22 -23 13 -5 -13 26 -78 73
-101 73 -8 0 3 -9 25 -21z"/>
<path d="M4405 6070 c10 -11 20 -20 23 -20 3 0 -3 9 -13 20 -10 11 -20 20 -23
20 -3 0 3 -9 13 -20z"/>
<path d="M4500 5985 c30 -30 57 -55 59 -55 3 0 -19 25 -49 55 -30 30 -57 55
-59 55 -3 0 19 -25 49 -55z"/>
<path d="M3857 5965 c3 -33 7 -62 9 -64 8 -9 2 85 -6 104 -5 12 -6 -4 -3 -40z"/>
<path d="M4365 5940 c10 -11 20 -20 23 -20 3 0 -3 9 -13 20 -10 11 -20 20 -23
20 -3 0 3 -9 13 -20z"/>
<path d="M4151 5915 c-17 -20 -31 -41 -31 -48 0 -7 6 -3 12 8 6 11 22 32 36
48 14 15 23 27 20 27 -3 0 -20 -16 -37 -35z"/>
<path d="M6590 5931 c-14 -4 27 -6 90 -4 151 5 172 11 40 11 -58 0 -116 -3
-130 -7z"/>
<path d="M7696 5932 c-17 -4 44 -7 135 -7 98 0 187 -6 222 -13 l57 -13 0 -110
c0 -65 -4 -109 -10 -109 -5 0 -42 9 -82 19 -70 18 -251 37 -198 21 14 -4 48
-8 75 -9 28 -1 84 -10 124 -21 41 -12 80 -19 88 -16 10 4 13 33 13 119 l0 114
-57 12 c-67 15 -324 23 -367 13z"/>
<path d="M12563 5933 c9 -2 23 -2 30 0 6 3 -1 5 -18 5 -16 0 -22 -2 -12 -5z"/>
<path d="M12723 5933 c9 -2 23 -2 30 0 6 3 -1 5 -18 5 -16 0 -22 -2 -12 -5z"/>
<path d="M6885 5912 c87 -27 141 -57 204 -116 43 -40 50 -44 32 -19 -41 59
-173 135 -256 147 -31 5 -26 2 20 -12z"/>
<path d="M12508 5923 c7 -3 16 -2 19 1 4 3 -2 6 -13 5 -11 0 -14 -3 -6 -6z"/>
<path d="M5845 5907 c-3 -7 -4 -140 -2 -297 l2 -285 3 293 2 292 136 0 135 0
-3 -327 c-4 -360 -6 -375 -68 -453 -64 -81 -234 -125 -397 -103 -43 6 -87 14
-98 17 -11 3 -5 0 12 -9 46 -21 185 -30 272 -16 138 22 216 74 265 180 20 44
21 64 24 384 l3 337 -141 0 c-104 0 -142 -3 -145 -13z"/>
<path d="M6495 5901 c-22 -10 -49 -26 -60 -36 -13 -11 -7 -9 16 4 20 12 54 28
75 35 22 8 32 15 24 15 -8 0 -33 -8 -55 -18z"/>
<path d="M7605 5910 c-25 -11 1 -11 35 0 20 6 21 8 5 8 -11 0 -29 -3 -40 -8z"/>
<path d="M8212 5813 l2 -108 3 103 4 102 399 0 399 0 4 -77 3 -78 2 83 2 82
-410 0 -410 0 2 -107z"/>
<path d="M9260 5913 c316 -7 590 -7 590 0 0 4 -161 6 -357 5 -197 -1 -302 -4
-233 -5z"/>
<path d="M10343 5913 c54 -2 139 -2 190 0 51 1 7 3 -98 3 -104 0 -146 -2 -92
-3z"/>
<path d="M11012 5473 l3 -448 129 -3 c71 -1 133 1 137 5 5 4 -52 7 -126 5
l-135 -3 0 440 0 441 193 3 192 2 -198 3 -197 2 2 -447z"/>
<path d="M11957 5913 l172 -3 4 -45 4 -45 -1 47 -1 48 -175 0 -175 1 172 -3z"/>
<path d="M4410 5890 c6 -11 13 -20 16 -20 2 0 0 9 -6 20 -6 11 -13 20 -16 20
-2 0 0 -9 6 -20z"/>
<path d="M12405 5893 c-36 -18 -102 -80 -117 -108 -6 -11 8 2 32 28 23 26 63
59 89 72 25 13 42 24 36 24 -5 0 -23 -7 -40 -16z"/>
<path d="M4580 5896 c0 -2 8 -10 18 -17 15 -13 16 -12 3 4 -13 16 -21 21 -21
13z"/>
<path d="M7513 5869 c-65 -38 -144 -123 -178 -193 -76 -156 -49 -383 60 -504
70 -78 177 -135 278 -147 28 -3 19 1 -28 13 -185 48 -308 171 -335 338 -36
218 44 392 230 498 25 14 41 26 35 26 -5 0 -33 -14 -62 -31z"/>
<path d="M11400 5895 c0 -5 5 -17 10 -25 5 -8 10 -10 10 -5 0 6 -5 17 -10 25
-5 8 -10 11 -10 5z"/>
<path d="M3835 5857 c-37 -57 -69 -72 -150 -72 -41 0 -67 -3 -57 -7 66 -26
176 9 213 68 26 43 21 53 -6 11z"/>
<path d="M11741 5849 c-6 -18 -9 -34 -7 -36 2 -2 9 10 15 28 6 18 9 34 7 36
-2 2 -9 -10 -15 -28z"/>
<path d="M12983 5845 c0 -22 2 -30 4 -17 2 12 2 30 0 40 -3 9 -5 -1 -4 -23z"/>
<path d="M4820 5840 c6 -11 13 -20 16 -20 2 0 0 9 -6 20 -6 11 -13 20 -16 20
-2 0 0 -9 6 -20z"/>
<path d="M10630 5855 c0 -5 5 -17 10 -25 5 -8 10 -10 10 -5 0 6 -5 17 -10 25
-5 8 -10 11 -10 5z"/>
<path d="M4112 5820 c0 -19 2 -27 5 -17 2 9 2 25 0 35 -3 9 -5 1 -5 -18z"/>
<path d="M6353 5797 c-28 -30 -60 -72 -72 -95 -32 -63 -25 -64 10 -2 16 30 51
76 77 103 25 26 44 47 41 47 -4 0 -29 -24 -56 -53z"/>
<path d="M4432 5815 c0 -16 2 -22 5 -12 2 9 2 23 0 30 -3 6 -5 -1 -5 -18z"/>
<path d="M4645 5806 c10 -14 19 -26 22 -26 7 0 -17 39 -28 46 -6 3 -3 -5 6
-20z"/>
<path d="M3428 5783 c18 -2 45 -2 60 0 15 2 0 4 -33 4 -33 0 -45 -2 -27 -4z"/>
<path d="M4860 5770 c6 -11 13 -20 16 -20 2 0 0 9 -6 20 -6 11 -13 20 -16 20
-2 0 0 -9 6 -20z"/>
<path d="M3260 5770 l-45 -7 40 -1 c22 0 63 3 90 8 l50 7 -45 0 c-25 0 -65 -3
-90 -7z"/>
<path d="M3556 5760 c25 -11 56 -37 78 -66 20 -26 36 -43 36 -39 0 4 -16 28
-36 52 -35 43 -80 74 -106 72 -7 0 6 -9 28 -19z"/>
<path d="M9125 5410 c0 -206 1 -291 2 -187 2 103 2 271 0 375 -1 103 -2 18 -2
-188z"/>
<path d="M4692 5725 c12 -24 23 -43 26 -41 4 5 -36 86 -43 86 -3 0 5 -20 17
-45z"/>
<path d="M3117 5749 c-65 -15 -84 -36 -147 -159 -60 -118 -68 -144 -51 -154 5
-4 7 2 4 13 -5 20 74 185 114 237 27 37 37 42 113 59 30 7 44 13 30 13 -14 0
-42 -4 -63 -9z"/>
<path d="M12144 5605 c0 -82 2 -115 3 -72 2 43 2 110 0 150 -1 40 -3 5 -3 -78z"/>
<path d="M12971 5734 c0 -11 3 -14 6 -6 3 7 2 16 -1 19 -3 4 -6 -2 -5 -13z"/>
<path d="M4150 5715 c13 -14 26 -25 28 -25 3 0 -5 11 -18 25 -13 14 -26 25
-28 25 -3 0 5 -11 18 -25z"/>
<path d="M4881 5735 c0 -5 6 -21 14 -35 8 -14 14 -20 14 -15 0 6 -6 21 -14 35
-8 14 -14 21 -14 15z"/>
<path d="M7150 5720 c6 -11 13 -20 16 -20 2 0 0 9 -6 20 -6 11 -13 20 -16 20
-2 0 0 -9 6 -20z"/>
<path d="M6675 5720 c-16 -3 -40 -12 -51 -18 -27 -14 -84 -79 -84 -95 0 -7 6
-3 12 8 37 67 91 98 170 97 94 -1 159 -49 193 -140 8 -21 14 -30 14 -22 2 54
-84 153 -143 165 -54 10 -83 12 -111 5z"/>
<path d="M12658 5723 c17 -2 47 -2 65 0 17 2 3 4 -33 4 -36 0 -50 -2 -32 -4z"/>
<path d="M4379 5703 c-13 -16 -12 -17 4 -4 16 13 21 21 13 21 -2 0 -10 -8 -17
-17z"/>
<path d="M7714 5706 c-39 -17 -97 -77 -118 -121 -16 -33 -25 -170 -12 -182 3
-4 6 28 6 70 0 89 7 112 51 161 34 39 75 65 124 77 27 6 28 7 5 8 -14 0 -39
-6 -56 -13z"/>
<path d="M12778 5713 c7 -3 16 -2 19 1 4 3 -2 6 -13 5 -11 0 -14 -3 -6 -6z"/>
<path d="M8278 5703 c23 -2 61 -2 85 0 23 2 4 4 -43 4 -47 0 -66 -2 -42 -4z"/>
<path d="M8442 5703 l38 -4 2 -337 3 -337 148 -3 c81 -1 147 1 147 5 0 5 -65
7 -145 5 l-145 -3 0 340 0 341 -42 -2 -43 -1 37 -4z"/>
<path d="M8798 5703 c6 -2 18 -2 25 0 6 3 1 5 -13 5 -14 0 -19 -2 -12 -5z"/>
<path d="M8858 5703 c12 -2 32 -2 45 0 12 2 2 4 -23 4 -25 0 -35 -2 -22 -4z"/>
<path d="M9533 5703 c59 -2 155 -2 215 0 59 1 10 3 -108 3 -118 0 -167 -2
-107 -3z"/>
<path d="M2501 5674 c0 -11 3 -14 6 -6 3 7 2 16 -1 19 -3 4 -6 -2 -5 -13z"/>
<path d="M7187 5642 c9 -29 19 -50 21 -47 5 5 -18 77 -29 89 -4 5 -1 -14 8
-42z"/>
<path d="M8774 5390 c0 -162 2 -229 3 -147 2 81 2 213 0 295 -1 81 -3 14 -3
-148z"/>
<path d="M4253 5663 c9 -2 25 -2 35 0 9 3 1 5 -18 5 -19 0 -27 -2 -17 -5z"/>
<path d="M4910 5665 c0 -5 5 -17 10 -25 5 -8 10 -10 10 -5 0 6 -5 17 -10 25
-5 8 -10 11 -10 5z"/>
<path d="M12251 5644 c0 -11 3 -14 6 -6 3 7 2 16 -1 19 -3 4 -6 -2 -5 -13z"/>
<path d="M2491 5634 c0 -11 3 -14 6 -6 3 7 2 16 -1 19 -3 4 -6 -2 -5 -13z"/>
<path d="M3879 5617 c-121 -110 -120 -109 -136 -95 -15 12 -15 11 -4 -10 12
-23 13 -23 80 37 38 33 74 67 81 76 14 17 56 20 65 5 3 -5 12 -10 18 -10 21 1
-26 30 -47 30 -12 0 -37 -15 -57 -33z"/>
<path d="M3680 5620 c6 -11 13 -20 16 -20 2 0 0 9 -6 20 -6 11 -13 20 -16 20
-2 0 0 -9 6 -20z"/>
<path d="M4180 5626 c0 -2 8 -10 18 -17 15 -13 16 -12 3 4 -13 16 -21 21 -21
13z"/>
<path d="M2482 5590 c0 -14 2 -19 5 -12 2 6 2 18 0 25 -3 6 -5 1 -5 -13z"/>
<path d="M3278 5603 c17 -2 32 -7 32 -9 0 -6 -29 -57 -101 -179 -64 -109 -76
-152 -54 -194 13 -27 38 -43 140 -91 148 -71 197 -92 202 -86 2 2 -11 9 -29
16 -18 8 -92 42 -164 76 -185 89 -186 94 -77 289 31 55 69 119 84 143 l28 42
-47 -2 c-36 -1 -40 -2 -14 -5z"/>
<path d="M6236 5579 c-9 -48 -7 -179 5 -228 17 -74 60 -154 113 -207 56 -55
158 -110 221 -119 30 -4 25 -1 -21 13 -160 48 -271 166 -305 323 -7 30 -9 96
-7 151 3 54 4 98 3 98 -1 0 -5 -14 -9 -31z"/>
<path d="M11266 5588 c4 -13 7 -32 6 -43 -1 -15 1 -16 7 -6 5 8 5 26 -1 42
-12 34 -23 40 -12 7z"/>
<path d="M11877 5591 c-4 -17 -3 -21 5 -13 5 5 8 16 6 23 -3 8 -7 3 -11 -10z"/>
<path d="M3168 5583 c-21 -24 -123 -202 -106 -185 7 7 36 52 63 100 45 78 54
88 85 93 l35 6 -31 2 c-18 0 -37 -6 -46 -16z"/>
<path d="M6526 5568 c-3 -13 -5 -57 -4 -98 l1 -75 7 95 c7 101 6 115 -4 78z"/>
<path d="M7212 5560 c0 -14 2 -19 5 -12 2 6 2 18 0 25 -3 6 -5 1 -5 -13z"/>
<path d="M12708 5573 c7 -3 16 -2 19 1 4 3 -2 6 -13 5 -11 0 -14 -3 -6 -6z"/>
<path d="M2667 5535 c-4 -22 -6 -53 -6 -70 1 -16 5 -3 10 30 10 67 6 102 -4
40z"/>
<path d="M3716 5557 c3 -10 9 -15 12 -12 3 3 0 11 -7 18 -10 9 -11 8 -5 -6z"/>
<path d="M3991 5554 c0 -11 3 -14 6 -6 3 7 2 16 -1 19 -3 4 -6 -2 -5 -13z"/>
<path d="M4270 5545 c13 -14 26 -25 28 -25 3 0 -5 11 -18 25 -13 14 -26 25
-28 25 -3 0 5 -11 18 -25z"/>
<path d="M4561 5567 c2 -1 13 -9 24 -17 19 -14 19 -14 6 3 -7 9 -18 17 -24 17
-6 0 -8 -1 -6 -3z"/>
<path d="M2466 5514 c-3 -26 -5 -101 -4 -168 l1 -121 7 165 c4 91 6 166 5 168
-1 1 -5 -18 -9 -44z"/>
<path d="M4434 5528 l-29 -33 33 29 c30 28 37 36 29 36 -2 0 -16 -15 -33 -32z"/>
<path d="M7747 5553 c-10 -9 -9 -191 1 -196 4 -3 7 38 7 91 l0 97 218 3 217 2
0 -239 0 -239 -91 -22 c-58 -14 -144 -25 -237 -31 l-147 -7 155 3 c117 3 174
9 235 25 43 12 83 24 87 26 4 3 8 115 8 250 l0 244 -223 0 c-123 0 -227 -3
-230 -7z"/>
<path d="M12270 5555 c0 -5 5 -17 10 -25 5 -8 10 -10 10 -5 0 6 -5 17 -10 25
-5 8 -10 11 -10 5z"/>
<path d="M4951 5540 c0 -8 4 -24 9 -35 5 -13 9 -14 9 -5 0 8 -4 24 -9 35 -5
13 -9 14 -9 5z"/>
<path d="M12850 5530 c8 -5 20 -10 25 -10 6 0 3 5 -5 10 -8 5 -19 10 -25 10
-5 0 -3 -5 5 -10z"/>
<path d="M4771 5514 c0 -11 3 -14 6 -6 3 7 2 16 -1 19 -3 4 -6 -2 -5 -13z"/>
<path d="M6932 5479 c-3 -87 -26 -151 -72 -195 -22 -21 -47 -42 -57 -46 -17
-6 -17 -7 0 -7 10 -1 37 19 62 43 52 53 78 126 72 208 l-3 53 -2 -56z"/>
<path d="M7223 5480 c0 -30 2 -43 4 -27 2 15 2 39 0 55 -2 15 -4 2 -4 -28z"/>
<path d="M3910 5456 c-36 -35 -81 -81 -100 -102 -19 -22 11 6 68 61 56 55 102
101 102 102 0 7 -9 -1 -70 -61z"/>
<path d="M10086 5505 c-9 -26 -7 -32 5 -12 6 10 9 21 6 23 -2 3 -7 -2 -11 -11z"/>
<path d="M11274 5415 c0 -60 1 -84 3 -52 2 32 2 81 0 110 -2 29 -3 3 -3 -58z"/>
<path d="M11885 5273 l0 -248 134 -3 c74 -1 138 1 142 5 5 4 -55 7 -131 5
l-140 -3 -3 245 -3 246 1 -247z"/>
<path d="M4586 5493 c-6 -14 -5 -15 5 -6 7 7 10 15 7 18 -3 3 -9 -2 -12 -12z"/>
<path d="M12320 5476 c19 -21 44 -42 55 -48 11 -6 18 -9 15 -6 -3 2 -27 24
-55 48 -48 42 -48 42 -15 6z"/>
<path d="M4326 5475 c4 -8 11 -15 16 -15 6 0 5 6 -2 15 -7 8 -14 15 -16 15 -2
0 -1 -7 2 -15z"/>
<path d="M4782 5470 c0 -14 2 -19 5 -12 2 6 2 18 0 25 -3 6 -5 1 -5 -13z"/>
<path d="M12940 5487 c0 -2 15 -16 33 -33 l32 -29 -29 33 c-28 30 -36 37 -36
29z"/>
<path d="M3523 5375 c-23 -53 -38 -93 -34 -91 4 3 23 40 41 83 18 43 37 82 40
86 4 5 21 -14 39 -41 17 -27 41 -58 54 -68 l22 -19 -21 25 c-12 14 -35 46 -53
73 -18 26 -35 47 -39 47 -4 0 -26 -43 -49 -95z"/>
<path d="M4009 5453 c-13 -16 -12 -17 4 -4 9 7 17 15 17 17 0 8 -8 3 -21 -13z"/>
<path d="M4972 5450 c0 -14 2 -19 5 -12 2 6 2 18 0 25 -3 6 -5 1 -5 -13z"/>
<path d="M4529 5433 l-24 -28 28 24 c25 23 32 31 24 31 -2 0 -14 -12 -28 -27z"/>
<path d="M4791 5414 c0 -11 3 -14 6 -6 3 7 2 16 -1 19 -3 4 -6 -2 -5 -13z"/>
<path d="M2949 5401 c16 -14 35 -20 60 -19 l36 1 -34 4 c-19 3 -46 11 -60 20
l-26 15 24 -21z"/>
<path d="M3959 5403 c-13 -16 -12 -17 4 -4 9 7 17 15 17 17 0 8 -8 3 -21 -13z"/>
<path d="M4982 5390 c0 -19 2 -27 5 -17 2 9 2 25 0 35 -3 9 -5 1 -5 -18z"/>
<path d="M12407 5409 c7 -7 15 -10 18 -7 3 3 -2 9 -12 12 -14 6 -15 5 -6 -5z"/>
<path d="M7201 5353 c-19 -83 -67 -168 -125 -220 -28 -25 -37 -37 -21 -25 69
47 124 128 150 219 9 34 16 66 13 73 -2 6 -9 -15 -17 -47z"/>
<path d="M10810 5395 c0 -5 5 -17 10 -25 5 -8 10 -10 10 -5 0 6 -5 17 -10 25
-5 8 -10 11 -10 5z"/>
<path d="M6535 5365 c8 -41 53 -103 86 -121 40 -20 49 -17 14 5 -43 27 -72 61
-90 106 -12 31 -14 33 -10 10z"/>
<path d="M10373 5383 c32 -2 81 -2 110 0 29 2 3 3 -58 3 -60 0 -84 -1 -52 -3z"/>
<path d="M3904 5348 l-29 -33 33 29 c17 17 32 31 32 33 0 8 -8 1 -36 -29z"/>
<path d="M9498 5373 c56 -2 148 -2 205 0 56 1 10 3 -103 3 -113 0 -159 -2
-102 -3z"/>
<path d="M2652 5345 c0 -16 2 -22 5 -12 2 9 2 23 0 30 -3 6 -5 -1 -5 -18z"/>
<path d="M7895 5360 c3 -5 10 -10 16 -10 5 0 9 5 9 10 0 6 -7 10 -16 10 -8 0
-12 -4 -9 -10z"/>
<path d="M7600 5353 c0 -22 73 -95 115 -114 22 -10 56 -18 75 -18 32 1 31 2
-11 9 -74 13 -133 53 -167 115 -6 11 -12 14 -12 8z"/>
<path d="M7798 5353 c7 -3 16 -2 19 1 4 3 -2 6 -13 5 -11 0 -14 -3 -6 -6z"/>
<path d="M10026 5345 c-9 -26 -7 -32 5 -12 6 10 9 21 6 23 -2 3 -7 -2 -11 -11z"/>
<path d="M10830 5345 c0 -5 5 -17 10 -25 5 -8 10 -10 10 -5 0 6 -5 17 -10 25
-5 8 -10 11 -10 5z"/>
<path d="M4993 5265 c0 -44 2 -61 4 -37 2 23 2 59 0 80 -2 20 -4 1 -4 -43z"/>
<path d="M3704 5316 c11 -9 29 -16 40 -15 17 1 16 2 -6 9 -14 4 -32 11 -40 15
-7 3 -4 -1 6 -9z"/>
<path d="M12153 5255 c0 -44 2 -61 4 -37 2 23 2 59 0 80 -2 20 -4 1 -4 -43z"/>
<path d="M5830 5306 c0 -8 -11 -27 -24 -43 -18 -21 -36 -29 -77 -34 l-54 -6
49 -2 c42 -1 52 3 82 33 29 29 45 66 29 66 -3 0 -5 -6 -5 -14z"/>
<path d="M11380 5315 c0 -5 5 -17 10 -25 5 -8 10 -10 10 -5 0 6 -5 17 -10 25
-5 8 -10 11 -10 5z"/>
<path d="M4389 5293 c-13 -16 -12 -17 4 -4 9 7 17 15 17 17 0 8 -8 3 -21 -13z"/>
<path d="M4803 5255 c0 -33 2 -45 4 -27 2 18 2 45 0 60 -2 15 -4 0 -4 -33z"/>
<path d="M2661 5276 c-1 -34 19 -159 25 -153 2 2 -3 44 -10 93 -8 49 -14 76
-15 60z"/>
<path d="M4120 5258 c-15 -21 -17 -28 -6 -19 16 13 41 51 33 51 -2 0 -14 -15
-27 -32z"/>
<path d="M7911 5264 c0 -11 3 -14 6 -6 3 7 2 16 -1 19 -3 4 -6 -2 -5 -13z"/>
<path d="M3471 5260 c3 -8 46 -36 98 -62 51 -25 104 -56 117 -69 13 -12 24
-18 24 -12 0 18 -33 40 -120 80 -47 22 -94 48 -104 59 -13 13 -18 14 -15 4z"/>
<path d="M3826 5245 c-9 -26 -7 -32 5 -12 6 10 9 21 6 23 -2 3 -7 -2 -11 -11z"/>
<path d="M5570 5240 c8 -5 22 -9 30 -9 10 0 8 3 -5 9 -27 12 -43 12 -25 0z"/>
<path d="M12398 5243 c7 -3 16 -2 19 1 4 3 -2 6 -13 5 -11 0 -14 -3 -6 -6z"/>
<path d="M5543 5160 c0 -47 2 -66 4 -42 2 23 2 61 0 85 -2 23 -4 4 -4 -43z"/>
<path d="M7865 5230 l-40 -7 35 -1 c19 -1 42 3 50 8 16 11 14 11 -45 0z"/>
<path d="M5633 5223 c9 -2 23 -2 30 0 6 3 -1 5 -18 5 -16 0 -22 -2 -12 -5z"/>
<path d="M6698 5223 c18 -2 45 -2 60 0 15 2 0 4 -33 4 -33 0 -45 -2 -27 -4z"/>
<path d="M9643 5223 l227 -3 0 -95 0 -95 -377 -3 -378 -2 383 -3 382 -2 0 105
0 105 -232 -2 -233 -3 228 -2z"/>
<path d="M12283 5185 c0 -27 2 -38 4 -22 2 15 2 37 0 50 -2 12 -4 0 -4 -28z"/>
<path d="M12488 5223 c7 -3 16 -2 19 1 4 3 -2 6 -13 5 -11 0 -14 -3 -6 -6z"/>
<path d="M2471 5199 c-2 -54 50 -224 98 -325 27 -57 52 -104 55 -104 4 0 -11
35 -33 78 -51 103 -78 178 -101 287 -10 50 -19 78 -19 64z"/>
<path d="M11726 5205 c-9 -26 -7 -32 5 -12 6 10 9 21 6 23 -2 3 -7 -2 -11 -11z"/>
<path d="M12548 5213 c7 -3 16 -2 19 1 4 3 -2 6 -13 5 -11 0 -14 -3 -6 -6z"/>
<path d="M9966 5185 c-9 -26 -7 -32 5 -12 6 10 9 21 6 23 -2 3 -7 -2 -11 -11z"/>
<path d="M11283 5130 c0 -41 2 -58 4 -37 2 20 2 54 0 75 -2 20 -4 3 -4 -38z"/>
<path d="M4140 5180 c8 -5 20 -10 25 -10 6 0 3 5 -5 10 -8 5 -19 10 -25 10 -5
0 -3 -5 5 -10z"/>
<path d="M11440 5175 c0 -5 5 -17 10 -25 5 -8 10 -10 10 -5 0 6 -5 17 -10 25
-5 8 -10 11 -10 5z"/>
<path d="M13006 5153 c-6 -14 -5 -15 5 -6 7 7 10 15 7 18 -3 3 -9 -2 -12 -12z"/>
<path d="M4792 5130 c0 -14 2 -19 5 -12 2 6 2 18 0 25 -3 6 -5 1 -5 -13z"/>
<path d="M3159 5128 c-19 -16 -102 -118 -96 -118 2 0 31 29 64 65 55 59 70 84
32 53z"/>
<path d="M4982 5115 c0 -16 2 -22 5 -12 2 9 2 23 0 30 -3 6 -5 -1 -5 -18z"/>
<path d="M12964 5098 l-29 -33 33 29 c30 28 37 36 29 36 -2 0 -16 -15 -33 -32z"/>
<path d="M3258 5090 c22 -16 42 -39 45 -52 4 -22 4 -22 6 -2 1 22 -59 84 -81
84 -6 0 7 -13 30 -30z"/>
<path d="M2696 5085 c8 -43 65 -171 102 -230 24 -39 28 -53 21 -70 -10 -19
-10 -19 5 -1 14 17 13 23 -10 60 -30 49 -79 151 -105 221 -11 28 -17 37 -13
20z"/>
<path d="M11528 5103 c34 -2 88 -2 120 0 31 2 3 3 -63 3 -66 0 -92 -1 -57 -3z"/>
<path d="M3711 5072 c-1 -25 -15 -48 -62 -100 -34 -37 -74 -78 -89 -92 -15
-14 -53 -54 -85 -90 -33 -36 5 -2 83 74 143 141 167 175 159 218 -3 18 -5 15
-6 -10z"/>
<path d="M6965 5064 c-27 -13 -39 -21 -25 -18 29 8 80 32 80 39 0 6 4 8 -55
-21z"/>
<path d="M4020 5070 c8 -5 20 -10 25 -10 6 0 3 5 -5 10 -8 5 -19 10 -25 10 -5
0 -3 -5 5 -10z"/>
<path d="M12904 5054 c-18 -14 -18 -15 4 -4 12 6 22 13 22 15 0 8 -5 6 -26
-11z"/>
<path d="M4971 5044 c0 -11 3 -14 6 -6 3 7 2 16 -1 19 -3 4 -6 -2 -5 -13z"/>
<path d="M10210 5047 c0 -14 -19 -17 -147 -20 l-148 -3 148 -2 c125 -2 149 0
154 13 3 9 3 19 -1 22 -3 4 -6 -1 -6 -10z"/>
<path d="M3834 5018 l-29 -33 33 29 c30 28 37 36 29 36 -2 0 -16 -15 -33 -32z"/>
<path d="M3950 5046 c0 -2 8 -10 18 -17 15 -13 16 -12 3 4 -13 16 -21 21 -21
13z"/>
<path d="M3415 4933 c-82 -84 -101 -108 -103 -137 -2 -26 2 -38 20 -50 12 -9
29 -16 38 -15 13 0 13 1 0 6 -29 11 -50 36 -50 62 0 19 26 51 102 128 56 56
100 104 97 105 -2 2 -49 -43 -104 -99z"/>
<path d="M4341 5024 c0 -11 3 -14 6 -6 3 7 2 16 -1 19 -3 4 -6 -2 -5 -13z"/>
<path d="M4771 5024 c0 -11 3 -14 6 -6 3 7 2 16 -1 19 -3 4 -6 -2 -5 -13z"/>
<path d="M6855 5030 c-27 -7 -28 -8 -5 -8 14 0 34 3 45 8 25 11 2 11 -40 0z"/>
<path d="M10733 5023 c43 -2 110 -2 150 0 40 1 5 3 -78 3 -82 0 -115 -2 -72
-3z"/>
<path d="M6668 5013 c28 -2 76 -2 105 0 28 2 5 3 -53 3 -58 0 -81 -1 -52 -3z"/>
<path d="M12418 5013 c6 -2 18 -2 25 0 6 3 1 5 -13 5 -14 0 -19 -2 -12 -5z"/>
<path d="M12798 5013 c7 -3 16 -2 19 1 4 3 -2 6 -13 5 -11 0 -14 -3 -6 -6z"/>
<path d="M3257 4966 c-20 -25 -85 -96 -144 -158 -60 -62 -119 -127 -133 -143
-31 -38 198 200 268 278 47 51 58 67 49 67 -1 0 -19 -20 -40 -44z"/>
<path d="M3981 4994 c0 -11 3 -14 6 -6 3 7 2 16 -1 19 -3 4 -6 -2 -5 -13z"/>
<path d="M4961 4994 c0 -11 3 -14 6 -6 3 7 2 16 -1 19 -3 4 -6 -2 -5 -13z"/>
<path d="M12498 5003 c7 -3 16 -2 19 1 4 3 -2 6 -13 5 -11 0 -14 -3 -6 -6z"/>
<path d="M12748 5003 c6 -2 18 -2 25 0 6 3 1 5 -13 5 -14 0 -19 -2 -12 -5z"/>
<path d="M3019 4963 c-71 -78 -93 -103 -87 -103 3 0 34 32 68 70 65 73 79 97
19 33z"/>
<path d="M12653 4993 c9 -2 23 -2 30 0 6 3 -1 5 -18 5 -16 0 -22 -2 -12 -5z"/>
<path d="M4951 4954 c0 -11 3 -14 6 -6 3 7 2 16 -1 19 -3 4 -6 -2 -5 -13z"/>
<path d="M4129 4923 c-13 -16 -12 -17 4 -4 16 13 21 21 13 21 -2 0 -10 -8 -17
-17z"/>
<path d="M3880 4875 c-24 -25 -42 -45 -39 -45 3 0 25 20 49 45 24 25 42 45 39
45 -3 0 -25 -20 -49 -45z"/>
<path d="M4089 4873 c-13 -16 -12 -17 4 -4 16 13 21 21 13 21 -2 0 -10 -8 -17
-17z"/>
<path d="M3629 4823 l-34 -38 38 34 c20 19 37 36 37 38 0 8 -8 0 -41 -34z"/>
<path d="M2899 4823 l-24 -28 28 24 c25 23 32 31 24 31 -2 0 -14 -12 -28 -27z"/>
<path d="M3809 4803 c-13 -16 -12 -17 4 -4 16 13 21 21 13 21 -2 0 -10 -8 -17
-17z"/>
<path d="M2812 4721 c-77 -92 -102 -127 -102 -141 0 -7 12 5 26 26 23 34 72
97 122 157 8 9 12 17 9 17 -3 0 -28 -27 -55 -59z"/>
<path d="M4175 4760 c-10 -11 -16 -22 -14 -24 2 -2 12 7 22 20 22 29 17 32 -8
4z"/>
<path d="M2640 4740 c6 -11 13 -20 16 -20 2 0 0 9 -6 20 -6 11 -13 20 -16 20
-2 0 0 -9 6 -20z"/>
<path d="M2769 4733 l-24 -28 28 24 c25 23 32 31 24 31 -2 0 -14 -12 -28 -27z"/>
<path d="M3570 4736 c0 -2 7 -6 15 -10 8 -3 15 -1 15 4 0 6 -7 10 -15 10 -8 0
-15 -2 -15 -4z"/>
<path d="M3965 4710 c-3 -5 -1 -10 4 -10 6 0 11 5 11 10 0 6 -2 10 -4 10 -3 0
-8 -4 -11 -10z"/>
<path d="M2715 4700 c-16 -7 -17 -9 -3 -9 9 -1 20 4 23 9 7 11 7 11 -20 0z"/>
<path d="M3713 4703 c15 -2 39 -2 55 0 15 2 2 4 -28 4 -30 0 -43 -2 -27 -4z"/>
<path d="M4115 4700 c-3 -5 1 -10 10 -10 9 0 13 5 10 10 -3 6 -8 10 -10 10 -2
0 -7 -4 -10 -10z"/>
<path d="M3598 4693 c7 -3 16 -2 19 1 4 3 -2 6 -13 5 -11 0 -14 -3 -6 -6z"/>
<path d="M3513 4683 c9 -2 23 -2 30 0 6 3 -1 5 -18 5 -16 0 -22 -2 -12 -5z"/>
<path d="M4228 4683 c7 -3 16 -2 19 1 4 3 -2 6 -13 5 -11 0 -14 -3 -6 -6z"/>
<path d="M3433 4673 c9 -2 23 -2 30 0 6 3 -1 5 -18 5 -16 0 -22 -2 -12 -5z"/>
<path d="M4298 4673 c7 -3 16 -2 19 1 4 3 -2 6 -13 5 -11 0 -14 -3 -6 -6z"/>
<path d="M4815 4644 c-9 -15 -12 -23 -6 -20 11 7 35 46 28 46 -3 0 -12 -12
-22 -26z"/>
<path d="M3278 4643 c7 -3 16 -2 19 1 4 3 -2 6 -13 5 -11 0 -14 -3 -6 -6z"/>
<path d="M4458 4643 c7 -3 16 -2 19 1 4 3 -2 6 -13 5 -11 0 -14 -3 -6 -6z"/>
<path d="M4589 4633 c-13 -16 -12 -17 4 -4 16 13 21 21 13 21 -2 0 -10 -8 -17
-17z"/>
<path d="M3238 4633 c7 -3 16 -2 19 1 4 3 -2 6 -13 5 -11 0 -14 -3 -6 -6z"/>
<path d="M3198 4623 c7 -3 16 -2 19 1 4 3 -2 6 -13 5 -11 0 -14 -3 -6 -6z"/>
<path d="M3118 4603 c7 -3 16 -2 19 1 4 3 -2 6 -13 5 -11 0 -14 -3 -6 -6z"/>
<path d="M2865 4590 c-13 -5 -14 -9 -5 -9 8 0 24 4 35 9 13 5 14 9 5 9 -8 0
-24 -4 -35 -9z"/>
<path d="M2790 4570 c-11 -8 -7 -9 15 -4 37 8 45 14 19 14 -10 0 -26 -5 -34
-10z"/>
<path d="M3693 4533 c48 -2 126 -2 175 0 48 1 8 3 -88 3 -96 0 -136 -2 -87 -3z"/>
<path d="M3483 4523 c9 -2 25 -2 35 0 9 3 1 5 -18 5 -19 0 -27 -2 -17 -5z"/>
<path d="M4073 4523 c15 -2 39 -2 55 0 15 2 2 4 -28 4 -30 0 -43 -2 -27 -4z"/>
<path d="M3408 4513 c6 -2 18 -2 25 0 6 3 1 5 -13 5 -14 0 -19 -2 -12 -5z"/>
<path d="M4208 4513 c7 -3 16 -2 19 1 4 3 -2 6 -13 5 -11 0 -14 -3 -6 -6z"/>
<path d="M3333 4503 c9 -2 23 -2 30 0 6 3 -1 5 -18 5 -16 0 -22 -2 -12 -5z"/>
<path d="M4358 4493 c7 -3 16 -2 19 1 4 3 -2 6 -13 5 -11 0 -14 -3 -6 -6z"/>
<path d="M3193 4483 c9 -2 23 -2 30 0 6 3 -1 5 -18 5 -16 0 -22 -2 -12 -5z"/>
<path d="M4488 4473 c7 -3 16 -2 19 1 4 3 -2 6 -13 5 -11 0 -14 -3 -6 -6z"/>
<path d="M4588 4453 c7 -3 16 -2 19 1 4 3 -2 6 -13 5 -11 0 -14 -3 -6 -6z"/>
<path d="M2968 4443 c7 -3 16 -2 19 1 4 3 -2 6 -13 5 -11 0 -14 -3 -6 -6z"/>
<path d="M4648 4443 c7 -3 16 -2 19 1 4 3 -2 6 -13 5 -11 0 -14 -3 -6 -6z"/>
<path d="M2625 4430 c-3 -6 1 -7 9 -4 18 7 21 14 7 14 -6 0 -13 -4 -16 -10z"/>
<path d="M4688 4433 c7 -3 16 -2 19 1 4 3 -2 6 -13 5 -11 0 -14 -3 -6 -6z"/>
<path d="M2738 4383 c7 -3 16 -2 19 1 4 3 -2 6 -13 5 -11 0 -14 -3 -6 -6z"/>
</g>
</svg>
